<svg fill="none" height="51" viewBox="0 0 230 51" width="230" xmlns="http://www.w3.org/2000/svg" xmlns:xlink="http://www.w3.org/1999/xlink"><clipPath id="a"><path d="m0 3h28.1033v29h-28.1033z"/></clipPath><g clip-path="url(#a)" fill="#ef415f"><path d="m20.6881 5.45858-3.9747 6.74912-2.6159 4.4432-.1067.1809-2.8953-4.9163 5.2505-8.9155z"/><path d="m13.4041 17.164h-5.84057l-5.25054-8.99936 4.35485-2.44198.01693.02988 4.01963 6.82706z"/><path d="m13.404 17.8279-2.9182 4.9562-10.4858-.0407.0194715-4.9155z"/><path d="m16.9115 23.1202-5.2285 8.8798-4.38197-2.4793 3.96457-6.7333 2.7252-4.6275.0347.0581z"/><path d="m28.1033 12.2078v4.9561h-13.5259l2.9182-4.9561z"/><path d="m25.7151 26.8355-4.3879 2.4619-4.0246-6.8412-2.7252-4.6283h5.8821z"/></g><path d="m48.3975 20.292-.4036 1.8294c-.2484 1.2402-1.1178 1.4263-2.3598 1.4263h-9.0976l-1.1178 5.1471h12.7925c4.0365 0 5.8374-2.0154 6.6447-5.7363l2.1424-10.1392c.1242-.5581.1863-1.1163.1863-1.6434 0-2.3875-1.3041-4.1859-4.347-4.1859h-8.1661c-5.4337 0-6.3652 2.54256-7.1725 6.5425-.1552.7751-.1863 1.3332-.1863 1.9534 0 3.0077 1.6457 4.8061 4.9991 4.8061zm1.0247-4.7751h-3.2292c-1.0557 0-1.5836-.4651-1.5836-1.2403 0-.124.0311-.4031.0932-.6821.1863-1.1163.9625-1.4574 2.2045-1.4574h1.6146c.9626 0 1.3351.3101 1.3351 1.0233 0 .217-.031.4341-.0931.7131z" fill="#f43f5e"/><path d="m71.1148 20.292-.4037 1.8294c-.2484 1.2402-1.1177 1.4263-2.3597 1.4263h-9.0976l-1.1178 5.1471h12.7925c4.0365 0 5.8373-2.0154 6.6446-5.7363l2.1425-10.1392c.1242-.5581.1863-1.1163.1863-1.6434 0-2.3875-1.3041-4.1859-4.347-4.1859h-8.1661c-5.4337 0-6.3652 2.54256-7.1725 6.5425-.1552.7751-.1863 1.3332-.1863 1.9534 0 3.0077 1.6457 4.8061 4.999 4.8061zm1.0246-4.7751h-3.2291c-1.0557 0-1.5836-.4651-1.5836-1.2403 0-.124.0311-.4031.0932-.6821.1863-1.1163.9625-1.4574 2.2045-1.4574h1.6146c.9625 0 1.3351.3101 1.3351 1.0233 0 .217-.031.4341-.0931.7131z" fill="#f43f5e"/><g fill="#fff"><path d="m80.2944 28.6948h15.0281c4.3469 0 5.7445-1.6433 6.5205-5.3642.155-.7441.279-1.7674.279-2.4185 0-2.5116-1.273-3.8449-3.974-4.682l-6.3031-1.9535c-.5589-.186-1.6146-.279-1.6146-1.0542 0-.8372 1.1488-.8372 1.6767-.8372h11.054l1.149-5.3952h-14.3455c-4.0364 0-5.5579 1.67437-6.272 5.0851-.1553.7132-.2484 1.7364-.2484 2.4186 0 2.2945.9004 3.9378 3.136 4.682l7.2657 2.3565c.652.2171 1.2109.4031 1.2109.9302 0 .7132-.8694.8372-1.3972.8372h-12.0473z"/><path d="m111.349 28.6948 1.335-6.2634h8.725c5.589 0 6.893-2.1394 7.793-7.1316.187-1.0232.28-2.1084.28-2.8836 0-3.28673-1.491-5.4262-5.403-5.4262h-11.706c-2.173 0-3.663 1.24027-4.129 3.4108l-3.913 18.294zm2.484-11.6586.714-3.2867c.186-.9302.714-1.3643 1.646-1.3643h3.57c1.553 0 2.391.3101 2.391 1.4883 0 .2481-.062.8062-.155 1.1163-.497 1.8294-1.366 2.0464-3.229 2.0464z"/><path d="m144.886 6.74194c-8.694 0-12.265 1.08524-13.817 10.48036-.28 1.7054-.373 2.6666-.373 3.9689 0 5.5502 3.167 7.7517 10.464 7.7517 8.694 0 12.265-1.0853 13.817-10.4804.28-1.7053.342-2.6355.342-3.9378 0-5.58127-3.136-7.78276-10.433-7.78276zm-6.614 10.79036c.839-4.0309 2.236-5.3952 5.962-5.3952 2.484 0 3.85.9613 3.85 3.1317 0 .7132-.093 1.8915-.31 2.8837-.87 4.0309-2.236 5.3952-5.962 5.3952-2.484 0-3.881-.9302-3.881-3.1007 0-.7132.124-1.8914.341-2.9147z"/><path d="m180.099 28.6948-6.428-9.178c-.434-.6202-.558-.9922-.558-1.3643 0-.8062.403-1.3023 1.024-1.8914l9.439-9.2711h-8.321l-7.576 7.8757c-1.056 1.1163-1.273 2.4806-1.273 3.6279 0 .6511.124 1.2402.466 1.7984l5.092 8.4028zm-24.002 0h7.018l4.626-21.7048h-7.017z"/><path d="m205.707 6.99h-15.712c-2.484 0-3.663 1.24027-4.129 3.4108l-3.167 14.8833c-.062.279-.093.5581-.093.8372 0 1.4573.931 2.5735 2.763 2.5735h15.835l1.118-5.2711h-10.867c-.745 0-1.118-.2791-1.118-.8682 0-.1551.031-.3101.062-.4962l.435-2.0464h11.861l1.024-4.7751h-11.861l.342-1.6123c.186-.9302.714-1.3643 1.646-1.3643h10.743z"/><path d="m205.185 28.6948h15.028c4.347 0 5.744-1.6433 6.52-5.3642.156-.7441.28-1.7674.28-2.4185 0-2.5116-1.273-3.8449-3.975-4.682l-6.303-1.9535c-.559-.186-1.614-.279-1.614-1.0542 0-.8372 1.149-.8372 1.676-.8372h11.054l1.149-5.3952h-14.345c-4.036 0-5.558 1.67437-6.272 5.0851-.155.7132-.248 1.7364-.248 2.4186 0 2.2945.9 3.9378 3.136 4.682l7.265 2.3565c.652.2171 1.211.4031 1.211.9302 0 .7132-.869.8372-1.397.8372h-12.047z"/><path d="m130.748 39.1211-1.518 8.7227h-1.613l1.778-10.2403h1.483zm4.293 2.0713-.014.1435c-.054.4467-.161.8978-.321 1.3536-.155.4511-.367.8658-.636 1.2441-.264.3737-.59.6722-.977.8955-.388.2233-.843.3281-1.367.3145-.461-.0092-.848-.1185-1.163-.3282-.314-.2142-.565-.4922-.751-.834-.187-.3418-.319-.7154-.397-1.121-.073-.4102-.1-.8158-.082-1.2168l.068-.5469c.073-.433.196-.8659.37-1.2988.177-.433.405-.8272.683-1.1827.278-.36.608-.6448.991-.8545.383-.2096.823-.3076 1.32-.2939.506.0137.918.1344 1.237.3623s.56.5241.725.8887c.168.3646.273.7633.314 1.1963.046.4329.046.859 0 1.2783zm-1.627.1367.021-.1504c.022-.2324.029-.4853.02-.7588-.004-.2734-.043-.5309-.116-.7724-.073-.2461-.198-.4489-.376-.6084-.173-.1595-.415-.2439-.725-.253-.282-.0136-.537.0319-.765.1368-.228.1002-.429.2415-.602.4238s-.319.3896-.437.6221c-.114.2324-.196.4739-.246.7246l-.212 1.3398c-.014.3008.027.5879.123.8613.1.2689.255.4899.464.6631.215.1732.486.2643.814.2735.337.0091.627-.0616.868-.212.242-.1503.442-.3509.602-.6015.159-.2552.285-.5309.376-.8272.095-.3008.159-.5879.191-.8613z"/><path d="m136.087 41.4248.02-.1572c.055-.5104.18-.9958.376-1.4561s.456-.8681.78-1.2236c.328-.36.713-.6403 1.155-.8408.447-.2006.943-.294 1.49-.2803.529.0091.982.1185 1.361.3281.382.2097.692.4899.929.8408.242.3464.41.7429.506 1.1895.096.4421.121.9046.075 1.3877l-.013.1572c-.06.5104-.19.9935-.39 1.4492-.196.4558-.458.8614-.786 1.2168-.324.3509-.709.6267-1.155.8272-.442.1959-.935.2871-1.477.2734-.524-.0091-.978-.1162-1.36-.3213-.379-.2096-.688-.4876-.93-.834-.237-.3463-.403-.7382-.499-1.1757-.096-.4421-.123-.9024-.082-1.3809zm1.62-.1572-.014.1572c-.022.2507-.025.515-.006.793.018.278.072.5377.164.7793.091.2415.232.4397.423.5947.192.1549.447.237.766.2461.337.0091.631-.0593.882-.2051s.46-.3418.629-.5879c.168-.2461.303-.515.403-.8066.1-.2962.166-.5856.198-.8682l.014-.1572c.027-.2461.032-.5081.014-.7861-.019-.2826-.073-.5469-.164-.793-.092-.2507-.233-.4535-.424-.6084-.192-.1595-.447-.2438-.766-.2529-.342-.0092-.638.0615-.888.2119-.251.1458-.461.3441-.629.5947-.169.2507-.303.5241-.404.8203-.095.2962-.162.5856-.198.8682z"/><path d="m145.705 43.2842 2.618-5.6807h1.08l-.615 1.7979-2.611 5.5986h-.964zm.007-5.6807.294 5.8789-.164 1.5176h-1.005l-.656-7.3965zm4.238 5.6328 2.208-5.6328h1.613l-3.219 7.3965h-1.067zm-.417-5.6328.656 5.7832-.088 1.6133h-.882l-.718-5.7627.02-1.6338z"/><path d="m156.861 45.1367c-.506-.0091-.954-.1071-1.346-.2939-.388-.1914-.709-.4489-.964-.7725-.255-.3281-.44-.7041-.554-1.1279-.114-.4284-.153-.8841-.116-1.3672l.027-.2803c.05-.4967.171-.9752.363-1.4355.191-.4649.446-.8773.765-1.2373.324-.3646.704-.6517 1.142-.8614.437-.2096.925-.3076 1.463-.2939.515.0091.95.1162 1.305.3213.356.2051.638.4785.848.8203.21.3372.349.7201.417 1.1484.073.4284.084.8728.034 1.333l-.096.7041h-5.55l.191-1.1826 3.917.0069.027-.1436c.041-.2871.025-.5583-.047-.8135-.069-.2552-.196-.4648-.383-.6289-.187-.164-.438-.2506-.752-.2597-.342-.0092-.636.0615-.882.2119-.242.1504-.442.3532-.602.6084-.159.2552-.284.5332-.376.834-.086.2962-.148.5856-.184.8681l-.028.2735c-.027.2688-.02.5354.021.7998.041.2643.121.5058.239.7246.119.2142.283.3896.492.5263.21.1322.47.2028.78.212.387.0091.738-.0707 1.052-.2393.319-.1732.609-.3965.869-.6699l.793.8408c-.21.3144-.47.5742-.78.7793-.305.2051-.638.3577-.998.458-.355.0957-.718.1413-1.087.1367z"/><path d="m163.451 39.0938-1.025 5.9062h-1.607l1.285-7.3965h1.525zm2.406-1.5518-.177 1.5381c-.105-.0183-.212-.0342-.322-.0479-.104-.0136-.209-.0205-.314-.0205-.278-.0045-.529.0342-.752.1162-.223.0821-.419.2006-.588.3555-.169.1504-.31.3327-.424.5469-.114.2096-.203.4443-.266.7041l-.383.0273c.045-.36.123-.7337.232-1.1211.114-.3873.271-.7474.472-1.0801.2-.3372.456-.6084.766-.8134.309-.2097.685-.3099 1.128-.3008.104 0 .209.0091.314.0273.105.0183.21.041.314.0684z"/><path d="m168.797 45.1367c-.506-.0091-.955-.1071-1.347-.2939-.387-.1914-.708-.4489-.964-.7725-.255-.3281-.439-.7041-.553-1.1279-.114-.4284-.153-.8841-.117-1.3672l.028-.2803c.05-.4967.171-.9752.362-1.4355.191-.4649.447-.8773.766-1.2373.323-.3646.704-.6517 1.141-.8614.438-.2096.925-.3076 1.463-.2939.515.0091.95.1162 1.306.3213.355.2051.638.4785.847.8203.21.3372.349.7201.417 1.1484.073.4284.085.8728.035 1.333l-.096.7041h-5.551l.192-1.1826 3.917.0069.027-.1436c.041-.2871.025-.5583-.048-.8135-.068-.2552-.196-.4648-.383-.6289-.187-.164-.437-.2506-.752-.2597-.341-.0092-.635.0615-.882.2119-.241.1504-.442.3532-.601.6084-.16.2552-.285.5332-.376.834-.087.2962-.148.5856-.185.8681l-.027.2735c-.027.2688-.02.5354.021.7998.041.2643.12.5058.239.7246.118.2142.282.3896.492.5263.21.1322.469.2028.779.212.388.0091.739-.0707 1.053-.2393.319-.1732.608-.3965.868-.6699l.793.8408c-.21.3144-.469.5742-.779.7793-.306.2051-.638.3577-.998.458-.356.0957-.718.1413-1.087.1367z"/><path d="m177.403 43.373 1.538-8.873h1.621l-1.826 10.5h-1.449zm-4.32-1.9345.014-.1436c.059-.4557.166-.9114.321-1.3672.159-.4557.374-.8727.643-1.2509.273-.3783.606-.6791.998-.9024.396-.2233.861-.3281 1.394-.3144.465.0136.852.1344 1.162.3623.31.2278.552.5218.725.8818.178.36.298.7497.362 1.1689.064.4148.084.8204.062 1.2168l-.055.4649c-.073.4193-.196.8431-.369 1.2715s-.399.8203-.677 1.1758c-.273.3554-.601.638-.984.8476-.379.2096-.811.3076-1.299.294-.488-.0183-.891-.1413-1.21-.3692-.319-.2324-.565-.5309-.738-.8955-.174-.3691-.285-.7656-.335-1.1894-.05-.4284-.055-.8454-.014-1.251zm1.641-.1573-.014.1436c-.027.237-.039.4899-.034.7588.004.2689.041.5264.109.7725.073.2415.194.442.362.6015.174.1595.415.2461.725.2598.36.0137.679-.0684.957-.2461.283-.1777.517-.4102.704-.6973s.319-.5924.397-.916l.191-1.251c.014-.2278-.002-.4534-.048-.6767-.041-.2233-.116-.4261-.225-.6084-.11-.1823-.256-.3304-.438-.4444-.178-.1185-.394-.18-.649-.1845-.337-.0137-.629.0547-.875.205-.242.1504-.442.351-.602.6016-.155.2507-.278.5241-.369.8203s-.155.5834-.191.8613z"/><path d="m185.675 34.5h1.613l-1.565 9.0166-.404 1.4834h-1.469zm5.113 6.6924-.014.1435c-.059.4558-.166.9115-.321 1.3672-.15.4512-.36.8636-.629 1.2373-.264.3737-.592.6722-.984.8955-.388.2188-.846.3213-1.374.3077-.47-.0092-.862-.1254-1.176-.3487-.31-.2233-.554-.5127-.731-.8681-.178-.3555-.299-.7406-.363-1.1553-.064-.4193-.086-.8294-.068-1.2305l.055-.4648c.077-.4239.2-.85.369-1.2783.173-.433.396-.8272.67-1.1827.273-.36.599-.6448.977-.8545.383-.2142.818-.3144 1.306-.3007.51.0136.925.1367 1.244.3691.319.2279.561.5241.725.8887.168.3646.273.7633.314 1.1963.046.4329.046.859 0 1.2783zm-1.627.1367.021-.1504c.027-.2324.038-.4853.034-.7588 0-.2734-.034-.5332-.103-.7793-.068-.2461-.189-.4466-.362-.6015-.169-.1595-.412-.2439-.731-.253-.283-.0136-.538.0319-.766.1368-.228.1002-.428.2415-.602.4238-.173.1777-.316.3828-.43.6152s-.201.474-.26.7246l-.191 1.251c-.014.3053.025.5993.116.8818.091.2826.241.5173.451.7041.21.1823.485.278.827.2871.342.0137.631-.0546.868-.205.242-.1504.438-.3487.588-.5948.155-.2461.276-.5172.362-.8134.087-.2963.146-.5856.178-.8682z"/><path d="m193.646 44.1113 3.048-6.5078h1.778l-4.334 8.5313c-.123.2552-.265.4967-.424.7246-.155.2278-.333.4284-.533.6015-.201.1732-.426.3077-.677.4034-.246.1002-.524.1503-.834.1503-.141-.0045-.28-.0205-.417-.0478-.141-.0228-.28-.0501-.417-.082l.116-1.2647c.05.0046.1.0091.151.0137.05.0091.1.0137.15.0137.26.0091.488-.0251.684-.1026.195-.0729.366-.1868.512-.3418.151-.1549.283-.3441.397-.5674zm.013-6.5078.752 5.6192-.014 1.6816-1.121.2871-1.298-7.5879z"/><path d="m206.169 43.373 1.538-8.873h1.62l-1.825 10.5h-1.449zm-4.32-1.9345.013-.1436c.06-.4557.167-.9114.322-1.3672.159-.4557.373-.8727.642-1.2509.274-.3783.606-.6791.998-.9024.397-.2233.862-.3281 1.395-.3144.465.0136.852.1344 1.162.3623.31.2278.551.5218.724.8818.178.36.299.7497.363 1.1689.064.4148.084.8204.061 1.2168l-.054.4649c-.073.4193-.196.8431-.37 1.2715-.173.4284-.398.8203-.676 1.1758-.274.3554-.602.638-.985.8476-.378.2096-.811.3076-1.298.294-.488-.0183-.891-.1413-1.21-.3692-.319-.2324-.566-.5309-.739-.8955-.173-.3691-.285-.7656-.335-1.1894-.05-.4284-.054-.8454-.013-1.251zm1.64-.1573-.013.1436c-.028.237-.039.4899-.035.7588.005.2689.041.5264.11.7725.073.2415.193.442.362.6015.173.1595.415.2461.725.2598.36.0137.679-.0684.957-.2461.282-.1777.517-.4102.704-.6973s.319-.5924.396-.916l.192-1.251c.013-.2278-.003-.4534-.048-.6767-.041-.2233-.116-.4261-.226-.6084-.109-.1823-.255-.3304-.437-.4444-.178-.1185-.394-.18-.65-.1845-.337-.0137-.629.0547-.875.205-.241.1504-.442.351-.601.6016-.155.2507-.278.5241-.369.8203s-.155.5834-.192.8613z"/><path d="m213.49 43.5166.561-3.5478c.027-.237.011-.4512-.048-.6426s-.169-.3418-.328-.4512c-.155-.1139-.36-.1732-.615-.1777-.228-.0046-.442.0341-.643.1162-.201.0775-.371.1937-.513.3486-.136.155-.228.3441-.273.5674l-1.607.0068c.028-.3873.142-.7246.342-1.0117.205-.2917.463-.5309.773-.7178.314-.1914.651-.3304 1.011-.417.365-.0911.72-.1344 1.067-.1298.501.0091.945.1162 1.333.3212.387.2051.681.4945.882.8682.205.3737.282.8249.232 1.3535l-.54 3.295c-.041.2597-.071.5263-.089.7998-.014.2688.023.5286.11.7793l-.014.123-1.593.0068c-.068-.2415-.102-.4876-.102-.7382 0-.2553.018-.5059.054-.752zm.745-3.0146-.164 1.0185-1.066-.0068c-.219 0-.444.0205-.677.0615-.228.041-.442.1116-.642.2119-.201.1003-.37.237-.506.4102-.137.1686-.221.3805-.253.6357-.023.2051 0 .3828.068.5332.073.1458.182.2621.328.3486.146.0866.319.1322.52.1368.269.0045.533-.0479.793-.1573.264-.1093.492-.2643.683-.4648.196-.2051.331-.4398.404-.7041l.43.7383c-.1.278-.241.5332-.424.7656-.177.2324-.385.4329-.622.6016-.237.1686-.496.2985-.779.3896-.278.0912-.565.1344-.861.1299-.41-.0091-.784-.1025-1.121-.2803-.338-.1823-.604-.4352-.8-.7588-.196-.3235-.283-.6972-.26-1.1211.023-.4785.144-.8772.362-1.1963.224-.3235.509-.5787.855-.7656.351-.1914.734-.3281 1.148-.4101.415-.0821.825-.1231 1.231-.1231z"/><path d="m221.078 37.6035-.212 1.2031h-4.047l.205-1.2031zm-2.57-1.8115h1.606l-1.223 7.1777c-.019.1595-.019.2985 0 .417.022.1185.075.2119.157.2803.086.0638.219.098.396.1025.096.0046.192 0 .287-.0136.101-.0137.201-.0274.301-.0411l-.116 1.2715c-.164.0502-.333.0866-.506.1094-.168.0228-.339.0319-.513.0273-.41-.0045-.74-.0979-.991-.2802-.25-.1869-.426-.4352-.526-.7451s-.132-.6563-.096-1.0391z"/><path d="m225.344 43.5166.56-3.5478c.028-.237.012-.4512-.048-.6426-.059-.1914-.168-.3418-.328-.4512-.155-.1139-.36-.1732-.615-.1777-.228-.0046-.442.0341-.642.1162-.201.0775-.372.1937-.513.3486-.137.155-.228.3441-.274.5674l-1.606.0068c.027-.3873.141-.7246.342-1.0117.205-.2917.462-.5309.772-.7178.315-.1914.652-.3304 1.012-.417.364-.0911.72-.1344 1.066-.1298.502.0091.946.1162 1.333.3212.388.2051.682.4945.882.8682.205.3737.283.8249.233 1.3535l-.54 3.295c-.041.2597-.071.5263-.089.7998-.014.2688.022.5286.109.7793l-.014.123-1.592.0068c-.069-.2415-.103-.4876-.103-.7382 0-.2553.018-.5059.055-.752zm.745-3.0146-.164 1.0185-1.067-.0068c-.218 0-.444.0205-.676.0615-.228.041-.442.1116-.643.2119-.2.1003-.369.237-.506.4102-.137.1686-.221.3805-.253.6357-.023.2051 0 .3828.069.5332.073.1458.182.2621.328.3486.146.0866.319.1322.519.1368.269.0045.533-.0479.793-.1573.265-.1093.492-.2643.684-.4648.196-.2051.33-.4398.403-.7041l.431.7383c-.1.278-.242.5332-.424.7656-.178.2324-.385.4329-.622.6016-.237.1686-.497.2985-.779.3896-.278.0912-.565.1344-.862.1299-.41-.0091-.784-.1025-1.121-.2803-.337-.1823-.604-.4352-.8-.7588-.196-.3235-.282-.6972-.259-1.1211.022-.4785.143-.8772.362-1.1963.223-.3235.508-.5787.854-.7656.351-.1914.734-.3281 1.149-.4101.415-.0821.825-.1231 1.23-.1231z"/></g></svg>